<?xml version="1.0" standalone="no"?>
<!DOCTYPE svg PUBLIC "-//W3C//DTD SVG 20010904//EN"
 "http://www.w3.org/TR/2001/REC-SVG-20010904/DTD/svg10.dtd">
<svg version="1.0" xmlns="http://www.w3.org/2000/svg"
 width="512.000000pt" height="512.000000pt" viewBox="0 0 512.000000 512.000000"
 preserveAspectRatio="xMidYMid meet">

<g transform="translate(0.000000,512.000000) scale(0.100000,-0.100000)"
fill="#000000" stroke="none">
<path d="M859 4276 c-175 -39 -292 -140 -351 -306 -22 -64 -23 -73 -26 -542
l-3 -478 -27 -6 c-248 -53 -389 -188 -436 -416 -13 -62 -16 -149 -16 -455 0
-347 2 -381 19 -418 36 -79 95 -115 186 -115 l54 0 3 -282 c3 -278 3 -284 27
-325 14 -24 42 -55 64 -70 39 -27 45 -28 186 -31 136 -3 149 -2 190 20 25 13
59 40 75 61 l31 39 3 294 3 294 1719 0 1719 0 3 -294 3 -294 31 -39 c16 -21
50 -48 75 -61 41 -22 54 -23 190 -20 141 3 147 4 186 31 22 15 50 46 64 70 24
41 24 47 27 324 l3 283 47 0 c69 0 144 39 179 91 l28 43 0 410 0 411 -28 79
c-37 104 -70 158 -133 221 -75 74 -178 124 -306 150 l-28 5 0 453 c0 501 -4
541 -61 648 -39 73 -117 146 -194 183 -124 58 -50 56 -1823 55 -1244 -1 -1640
-4 -1683 -13z m3380 -202 c39 -11 67 -29 101 -64 80 -79 80 -81 80 -607 l0
-453 -69 0 -70 0 -3 263 c-3 250 -4 264 -26 304 -12 24 -41 55 -64 70 l-42 28
-671 0 -672 0 -36 -27 c-19 -16 -46 -43 -59 -60 -22 -32 -23 -41 -28 -303 l-5
-270 -112 -3 -113 -3 0 243 c0 145 -5 259 -11 283 -15 56 -54 104 -103 126
-39 18 -78 19 -689 19 -702 0 -674 2 -735 -54 -54 -49 -57 -62 -62 -346 l-5
-265 -87 -3 -88 -3 0 408 c1 455 8 532 57 611 34 55 65 79 134 103 52 18 125
18 1690 19 1460 0 1641 -2 1688 -16z m-1979 -884 l0 -240 -600 0 -600 0 0 240
0 240 600 0 600 0 0 -240z m1820 0 l0 -240 -600 0 -600 0 0 240 0 240 600 0
600 0 0 -240z m530 -441 c85 -14 139 -38 193 -88 75 -69 106 -176 107 -358 l0
-83 -2360 0 -2360 0 0 98 c0 177 31 274 110 346 51 46 108 73 181 85 80 13
4048 14 4129 0z m298 -871 l-3 -143 -2357 -3 -2358 -2 0 145 0 145 2360 0
2361 0 -3 -142z m-4268 -593 l0 -255 -95 0 -95 0 0 255 0 255 95 0 95 0 0
-255z m4010 0 l0 -255 -95 0 -95 0 0 255 0 255 95 0 95 0 0 -255z"/>
</g>
</svg>
