<?xml version="1.0" standalone="no"?>
<!DOCTYPE svg PUBLIC "-//W3C//DTD SVG 20010904//EN"
 "http://www.w3.org/TR/2001/REC-SVG-20010904/DTD/svg10.dtd">
<svg version="1.0" xmlns="http://www.w3.org/2000/svg"
 width="512.000000pt" height="512.000000pt" viewBox="0 0 512.000000 512.000000"
 preserveAspectRatio="xMidYMid meet">

<g transform="translate(0.000000,512.000000) scale(0.100000,-0.100000)"
fill="#000000" stroke="none">
<path d="M2490 5045 l0 -75 75 0 75 0 0 75 0 75 -75 0 -75 0 0 -75z"/>
<path d="M2490 2560 l0 -2260 75 0 75 0 0 2260 0 2260 -75 0 -75 0 0 -2260z"/>
<path d="M800 4800 c-375 -36 -664 -281 -774 -655 -20 -69 -20 -86 -23 -1809
-4 -1931 -8 -1805 63 -1912 44 -66 105 -115 182 -146 l57 -23 770 0 770 0 57
23 c77 31 138 80 182 146 71 107 67 -19 63 1912 -3 1723 -3 1740 -23 1809 -99
336 -342 568 -670 641 -82 18 -520 27 -654 14z m-10 -169 c0 -39 -51 -177 -91
-251 -75 -133 -242 -276 -379 -325 -25 -9 -71 -22 -103 -30 l-57 -13 0 29 c0
45 44 171 85 246 57 101 188 227 292 281 70 36 198 80 241 81 6 1 12 -8 12
-18z m458 -52 c35 -206 177 -426 359 -555 83 -60 214 -120 309 -142 l79 -19 3
-314 2 -314 -46 68 c-54 82 -184 212 -262 266 -188 127 -394 191 -617 191
-223 0 -429 -64 -617 -191 -78 -54 -208 -184 -262 -266 l-46 -68 0 312 0 312
38 6 c375 63 678 354 743 713 l13 72 146 0 146 0 12 -71z m255 37 c218 -77
380 -240 457 -458 29 -80 38 -138 23 -138 -5 0 -35 8 -68 19 -263 81 -463 300
-520 569 -6 29 -4 32 17 32 13 0 54 -11 91 -24z m-246 -1021 c147 -31 263 -85
392 -183 71 -54 186 -183 179 -200 -1 -5 -52 -79 -113 -164 l-109 -156 -36 6
c-46 9 -944 9 -990 0 l-36 -6 -109 156 c-61 85 -112 159 -113 164 -7 15 99
137 164 189 123 97 257 162 404 195 78 17 285 17 367 -1z m-926 -660 c47 -66
88 -125 91 -131 4 -6 0 -30 -8 -53 -12 -37 -14 -132 -10 -645 2 -330 5 -608 7
-616 2 -9 -46 -86 -106 -172 -97 -139 -112 -156 -123 -141 -31 42 -33 100 -29
876 3 687 5 789 19 843 26 93 59 177 68 167 4 -4 45 -62 91 -128z m1642 -23
c21 -76 22 -91 25 -859 3 -776 1 -834 -30 -876 -11 -15 -26 2 -123 141 -60 86
-108 163 -106 172 2 8 5 286 7 616 4 513 2 608 -10 645 -8 23 -12 48 -8 54 4
6 48 69 97 139 l90 128 18 -41 c10 -23 28 -76 40 -119z m-407 -170 c32 -21 34
-51 34 -612 0 -561 -2 -591 -34 -612 -14 -10 -968 -10 -982 0 -32 21 -34 51
-34 612 0 561 2 591 34 612 14 10 968 10 982 0z m-491 -1387 c248 0 473 3 501
8 l50 7 100 -142 c54 -78 101 -146 102 -150 2 -4 -337 -8 -753 -8 -416 0 -755
4 -753 8 2 4 48 72 102 150 l100 142 50 -7 c28 -5 254 -8 501 -8z m-739 -435
c90 -12 1388 -12 1478 0 40 5 93 20 127 37 l59 30 0 -203 c0 -201 0 -202 -27
-254 -17 -31 -45 -65 -71 -84 l-44 -31 -783 0 -783 0 -44 31 c-26 19 -54 53
-70 84 -28 52 -28 53 -28 254 l0 203 59 -30 c34 -17 87 -32 127 -37z"/>
<path d="M294 697 c-3 -8 -4 -43 -2 -78 l3 -64 75 0 75 0 0 75 0 75 -73 3
c-55 2 -74 -1 -78 -11z"/>
<path d="M1704 697 c-3 -8 -4 -43 -2 -78 l3 -64 75 0 75 0 0 75 0 75 -73 3
c-55 2 -74 -1 -78 -11z"/>
<path d="M3770 4800 c-375 -36 -664 -281 -774 -655 -20 -69 -20 -86 -23 -1809
-4 -1931 -8 -1805 63 -1912 44 -66 105 -115 182 -146 l57 -23 770 0 770 0 57
23 c77 31 138 80 182 146 71 107 67 -19 63 1912 -3 1723 -3 1740 -23 1809 -99
336 -342 568 -670 641 -82 18 -520 27 -654 14z m-10 -169 c0 -39 -51 -177 -91
-251 -75 -133 -242 -276 -379 -325 -25 -9 -71 -22 -102 -30 l-58 -13 0 29 c0
45 44 171 85 246 57 101 188 227 292 281 70 36 198 80 241 81 6 1 12 -8 12
-18z m458 -52 c35 -206 177 -426 359 -555 83 -60 214 -120 309 -142 l79 -19 3
-314 2 -314 -46 68 c-54 82 -184 212 -262 266 -188 127 -394 191 -617 191
-223 0 -429 -64 -617 -191 -78 -54 -208 -184 -262 -266 l-46 -68 0 312 0 312
38 6 c375 63 678 354 743 713 l13 72 146 0 146 0 12 -71z m255 37 c218 -77
380 -240 457 -458 29 -80 38 -138 23 -138 -5 0 -35 8 -68 19 -263 81 -463 300
-520 569 -6 29 -4 32 17 32 13 0 54 -11 91 -24z m-246 -1021 c147 -31 263 -85
392 -183 71 -54 186 -183 179 -200 -1 -5 -52 -79 -113 -164 l-109 -156 -36 6
c-46 9 -944 9 -990 0 l-36 -6 -109 156 c-61 85 -112 159 -113 164 -7 15 99
137 164 189 123 97 257 162 404 195 78 17 285 17 367 -1z m-926 -660 c47 -66
88 -125 91 -131 4 -6 0 -30 -8 -53 -12 -37 -14 -132 -10 -645 2 -330 5 -608 7
-616 2 -9 -46 -86 -106 -172 -97 -139 -112 -156 -123 -141 -31 42 -33 100 -29
876 3 687 5 789 19 843 26 93 59 177 68 167 4 -4 45 -62 91 -128z m1642 -23
c21 -76 22 -91 25 -859 3 -776 1 -834 -30 -876 -11 -15 -26 2 -123 141 -60 86
-108 163 -106 172 2 8 5 286 7 616 4 513 2 608 -10 645 -8 23 -12 48 -8 54 4
6 48 69 97 139 l90 128 18 -41 c10 -23 28 -76 40 -119z m-407 -170 c32 -21 34
-51 34 -612 0 -561 -2 -591 -34 -612 -14 -10 -968 -10 -982 0 -32 21 -34 51
-34 612 0 561 2 591 34 612 14 10 968 10 982 0z m-491 -1387 c248 0 473 3 501
8 l50 7 100 -142 c54 -78 101 -146 102 -150 2 -4 -337 -8 -753 -8 -416 0 -755
4 -753 8 2 4 48 72 102 150 l100 142 50 -7 c28 -5 254 -8 501 -8z m-739 -435
c90 -12 1388 -12 1478 0 40 5 93 20 127 37 l59 30 0 -203 c0 -201 0 -202 -27
-254 -17 -31 -45 -65 -71 -84 l-44 -31 -783 0 -783 0 -44 31 c-26 19 -54 53
-70 84 -28 52 -28 53 -28 254 l0 203 59 -30 c34 -17 87 -32 127 -37z"/>
<path d="M3284 697 c-3 -8 -4 -43 -2 -78 l3 -64 75 0 75 0 0 75 0 75 -73 3
c-55 2 -74 -1 -78 -11z"/>
<path d="M4694 697 c-3 -8 -4 -43 -2 -78 l3 -64 75 0 75 0 0 75 0 75 -73 3
c-55 2 -74 -1 -78 -11z"/>
<path d="M2490 75 l0 -75 75 0 75 0 0 75 0 75 -75 0 -75 0 0 -75z"/>
</g>
</svg>
