<?xml version="1.0" standalone="no"?>
<!DOCTYPE svg PUBLIC "-//W3C//DTD SVG 20010904//EN"
 "http://www.w3.org/TR/2001/REC-SVG-20010904/DTD/svg10.dtd">
<svg version="1.0" xmlns="http://www.w3.org/2000/svg"
 width="512.000000pt" height="512.000000pt" viewBox="0 0 512.000000 512.000000"
 preserveAspectRatio="xMidYMid meet">

<g transform="translate(0.000000,512.000000) scale(0.100000,-0.100000)"
fill="#000000" stroke="none">
<path d="M255 4669 c-33 -19 -225 -212 -242 -243 -48 -91 75 -189 150 -118 13
12 26 22 30 22 4 0 7 -812 7 -1805 0 -1377 3 -1810 12 -1830 26 -57 -22 -55
1098 -55 740 0 1037 3 1053 11 70 36 76 143 9 176 -9 4 -415 10 -901 13 l-884
5 2158 1750 c1187 963 2162 1752 2167 1753 4 2 8 -15 8 -37 0 -53 39 -99 91
-107 31 -5 42 -1 70 24 l34 30 0 182 0 182 -33 29 -34 30 -175 -3 -175 -3 -29
-33 c-18 -20 -29 -43 -29 -62 0 -35 37 -80 78 -95 29 -10 7 -28 -2135 -1765
-1191 -965 -2170 -1756 -2174 -1758 -5 -2 -9 731 -9 1682 l0 1687 28 -20 c41
-30 73 -34 112 -14 37 19 60 66 53 108 -3 12 -60 77 -127 144 -99 98 -128 123
-156 126 -19 3 -44 0 -55 -6z"/>
<path d="M685 4671 c-64 -26 -81 -110 -32 -158 24 -25 36 -28 107 -31 80 -4
80 -4 115 31 47 47 47 87 1 133 -32 32 -38 34 -102 33 -38 0 -78 -4 -89 -8z"/>
<path d="M1195 4671 c-64 -26 -81 -110 -32 -158 24 -25 36 -28 106 -31 75 -4
80 -3 112 26 28 25 34 37 34 72 0 35 -6 47 -33 71 -29 26 -39 29 -100 28 -37
0 -76 -4 -87 -8z"/>
<path d="M1704 4670 c-32 -13 -64 -59 -64 -91 0 -18 11 -41 29 -61 28 -31 34
-33 109 -36 76 -4 81 -3 113 26 28 25 34 37 34 72 0 35 -6 47 -33 71 -29 26
-39 29 -100 28 -37 0 -77 -4 -88 -9z"/>
<path d="M2214 4670 c-32 -13 -64 -59 -64 -91 0 -18 11 -41 29 -61 28 -31 34
-33 109 -36 76 -4 81 -3 113 26 28 25 34 37 34 72 0 35 -6 47 -33 71 -29 26
-39 29 -100 28 -37 0 -77 -4 -88 -9z"/>
<path d="M2724 4670 c-32 -13 -64 -59 -64 -91 0 -18 11 -41 29 -61 28 -31 34
-33 109 -36 76 -4 81 -3 113 26 28 25 34 37 34 72 0 35 -6 47 -33 71 -29 26
-39 29 -100 28 -37 0 -77 -4 -88 -9z"/>
<path d="M3234 4670 c-32 -13 -64 -59 -64 -91 0 -18 11 -41 29 -61 28 -31 34
-33 109 -36 76 -4 81 -3 113 26 28 25 34 37 34 72 0 35 -6 47 -33 71 -29 26
-39 29 -100 28 -37 0 -77 -4 -88 -9z"/>
<path d="M3744 4670 c-32 -13 -64 -59 -64 -91 0 -18 11 -41 29 -61 28 -31 34
-33 109 -36 76 -4 81 -3 113 26 28 25 34 37 34 72 0 35 -6 47 -33 71 -29 26
-39 29 -100 28 -37 0 -77 -4 -88 -9z"/>
<path d="M4254 4670 c-32 -13 -64 -59 -64 -91 0 -18 11 -41 29 -61 28 -31 34
-33 109 -36 76 -4 81 -3 113 26 28 25 34 37 34 72 0 35 -6 47 -33 71 -29 26
-39 29 -100 28 -37 0 -77 -4 -88 -9z"/>
<path d="M4964 4002 c-34 -27 -44 -56 -44 -124 0 -78 14 -108 63 -131 36 -18
38 -18 74 0 49 23 63 53 63 131 0 95 -33 142 -100 142 -19 0 -45 -8 -56 -18z"/>
<path d="M4964 3492 c-34 -27 -44 -56 -44 -124 0 -78 14 -108 63 -131 36 -18
38 -18 74 0 49 23 63 53 63 131 0 95 -33 142 -100 142 -19 0 -45 -8 -56 -18z"/>
<path d="M4964 2982 c-34 -27 -44 -56 -44 -124 0 -78 14 -108 63 -131 36 -18
38 -18 74 0 49 23 63 53 63 131 0 95 -33 142 -100 142 -19 0 -45 -8 -56 -18z"/>
<path d="M4964 2472 c-34 -27 -44 -56 -44 -124 0 -78 14 -108 63 -131 36 -18
38 -18 74 0 49 23 63 53 63 131 0 95 -33 142 -100 142 -19 0 -45 -8 -56 -18z"/>
<path d="M4964 1962 c-34 -27 -44 -56 -44 -124 0 -78 14 -108 63 -131 36 -18
38 -18 74 0 49 23 63 53 63 131 0 95 -33 142 -100 142 -19 0 -45 -8 -56 -18z"/>
<path d="M4964 1452 c-34 -27 -44 -56 -44 -124 0 -78 14 -108 63 -131 36 -18
38 -18 74 0 49 23 63 53 63 131 0 95 -33 142 -100 142 -19 0 -45 -8 -56 -18z"/>
<path d="M4782 1025 c-22 -9 -38 -27 -48 -50 -16 -40 -12 -65 18 -107 l19 -28
-831 -2 -832 -3 -29 -33 c-38 -42 -38 -82 0 -124 l29 -33 832 -3 831 -2 -22
-32 c-63 -87 20 -198 115 -153 45 22 243 225 252 259 3 14 3 38 0 52 -9 33
-207 237 -251 258 -40 19 -41 19 -83 1z"/>
<path d="M2715 831 c-64 -27 -81 -110 -32 -158 60 -61 162 -19 162 67 0 66
-72 116 -130 91z"/>
</g>
</svg>
